<mxfile host="app.diagrams.net" agent="Mozilla/5.0 (Windows NT 10.0; Win64; x64) AppleWebKit/537.36 (KHTML, like Gecko) Chrome/129.0.0.0 Safari/537.36" version="24.7.16">
  <diagram name="Página-1" id="6SBXg3XtyXILfyrkt7Xd">
    <mxGraphModel grid="1" page="1" gridSize="10" guides="1" tooltips="1" connect="1" arrows="1" fold="1" pageScale="1" pageWidth="827" pageHeight="1169" math="0" shadow="0">
      <root>
        <mxCell id="0" />
        <mxCell id="1" parent="0" />
        <mxCell id="w_5sMjm8i_uiX6zotBji-1" value="The Wider Environment" style="ellipse;whiteSpace=wrap;html=1;aspect=fixed;spacingBottom=650;fontSize=16;" vertex="1" parent="1">
          <mxGeometry x="60" y="50" width="700" height="700" as="geometry" />
        </mxCell>
        <mxCell id="w_5sMjm8i_uiX6zotBji-2" value="The Containing System" style="ellipse;whiteSpace=wrap;html=1;aspect=fixed;spacingBottom=450;fontSize=16;" vertex="1" parent="1">
          <mxGeometry x="160" y="150" width="500" height="500" as="geometry" />
        </mxCell>
        <mxCell id="w_5sMjm8i_uiX6zotBji-4" value="The System" style="ellipse;whiteSpace=wrap;html=1;aspect=fixed;spacingTop=0;spacingBottom=250;fontSize=16;" vertex="1" parent="1">
          <mxGeometry x="260" y="250" width="300" height="300" as="geometry" />
        </mxCell>
        <mxCell id="w_5sMjm8i_uiX6zotBji-5" value="Product" style="ellipse;whiteSpace=wrap;html=1;aspect=fixed;fontSize=16;" vertex="1" parent="1">
          <mxGeometry x="360" y="350" width="100" height="100" as="geometry" />
        </mxCell>
        <mxCell id="w_5sMjm8i_uiX6zotBji-6" value="&lt;font color=&quot;#000000&quot;&gt;Gerente de administración y finanzas&lt;/font&gt;" style="shape=actor;whiteSpace=wrap;html=1;fillColor=#0050ef;strokeColor=#001DBC;fillStyle=auto;verticalAlign=middle;spacing=0;spacingBottom=0;fontColor=#ffffff;spacingTop=85;" vertex="1" parent="1">
          <mxGeometry x="490" y="310" width="30" height="40" as="geometry" />
        </mxCell>
        <mxCell id="w_5sMjm8i_uiX6zotBji-8" value="&lt;font color=&quot;#000000&quot;&gt;Gerente de marketing&lt;/font&gt;" style="shape=actor;whiteSpace=wrap;html=1;fillColor=#0050ef;strokeColor=#001DBC;fillStyle=auto;verticalAlign=middle;spacing=0;spacingBottom=0;fontColor=#ffffff;spacingTop=70;spacingLeft=-15;spacingRight=-15;" vertex="1" parent="1">
          <mxGeometry x="580" y="290" width="30" height="40" as="geometry" />
        </mxCell>
        <mxCell id="w_5sMjm8i_uiX6zotBji-9" value="&lt;font color=&quot;#000000&quot;&gt;Líder de proyectos&lt;/font&gt;" style="shape=actor;whiteSpace=wrap;html=1;fillColor=#0050ef;strokeColor=#001DBC;fillStyle=auto;verticalAlign=middle;spacing=0;spacingBottom=0;fontColor=#ffffff;spacingTop=70;" vertex="1" parent="1">
          <mxGeometry x="430" y="460" width="30" height="40" as="geometry" />
        </mxCell>
        <mxCell id="w_5sMjm8i_uiX6zotBji-10" value="&lt;font color=&quot;#000000&quot;&gt;Jefe de soporte de clientes&lt;/font&gt;" style="shape=actor;whiteSpace=wrap;html=1;fillColor=#0050ef;strokeColor=#001DBC;fillStyle=auto;verticalAlign=middle;spacing=0;spacingBottom=0;fontColor=#ffffff;spacingTop=85;align=center;spacingLeft=-20;spacingRight=-20;" vertex="1" parent="1">
          <mxGeometry x="290" y="370" width="30" height="40" as="geometry" />
        </mxCell>
        <mxCell id="w_5sMjm8i_uiX6zotBji-11" value="&lt;font color=&quot;#000000&quot;&gt;Gerente de operaciones&lt;/font&gt;" style="shape=actor;whiteSpace=wrap;html=1;fillColor=#0050ef;strokeColor=#001DBC;fillStyle=auto;verticalAlign=middle;spacing=0;spacingBottom=0;fontColor=#ffffff;spacingTop=70;align=center;spacingLeft=-20;spacingRight=-20;" vertex="1" parent="1">
          <mxGeometry x="200" y="320" width="30" height="40" as="geometry" />
        </mxCell>
        <mxCell id="w_5sMjm8i_uiX6zotBji-12" value="&lt;font color=&quot;#000000&quot;&gt;Negativos&lt;/font&gt;" style="shape=actor;whiteSpace=wrap;html=1;fillStyle=auto;verticalAlign=middle;spacing=0;spacingBottom=0;spacingTop=60;align=center;spacingLeft=0;spacingRight=0;" vertex="1" parent="1">
          <mxGeometry x="590" y="130" width="30" height="40" as="geometry" />
        </mxCell>
        <mxCell id="w_5sMjm8i_uiX6zotBji-13" value="&lt;font color=&quot;#000000&quot;&gt;Políticos&lt;/font&gt;" style="shape=actor;whiteSpace=wrap;html=1;fillStyle=auto;verticalAlign=middle;spacing=0;spacingBottom=0;spacingTop=60;align=center;spacingLeft=0;spacingRight=0;" vertex="1" parent="1">
          <mxGeometry x="100" y="320" width="30" height="40" as="geometry" />
        </mxCell>
        <mxCell id="w_5sMjm8i_uiX6zotBji-14" value="&lt;font color=&quot;#000000&quot;&gt;Sponsors&lt;/font&gt;" style="shape=actor;whiteSpace=wrap;html=1;fillStyle=auto;verticalAlign=middle;spacing=0;spacingBottom=0;spacingTop=60;align=center;spacingLeft=0;spacingRight=0;" vertex="1" parent="1">
          <mxGeometry x="620" y="580" width="30" height="40" as="geometry" />
        </mxCell>
        <mxCell id="w_5sMjm8i_uiX6zotBji-15" value="&lt;font color=&quot;#000000&quot;&gt;Desarrolladores&lt;/font&gt;" style="shape=actor;whiteSpace=wrap;html=1;fillStyle=auto;verticalAlign=middle;spacing=0;spacingBottom=0;spacingTop=60;align=center;spacingLeft=0;spacingRight=0;fillColor=#0050ef;fontColor=#ffffff;strokeColor=#001DBC;" vertex="1" parent="1">
          <mxGeometry x="320" y="660" width="30" height="40" as="geometry" />
        </mxCell>
        <mxCell id="w_5sMjm8i_uiX6zotBji-16" value="&lt;font color=&quot;#000000&quot;&gt;Público&lt;/font&gt;" style="shape=actor;whiteSpace=wrap;html=1;fillStyle=auto;verticalAlign=middle;spacing=0;spacingBottom=0;spacingTop=60;align=center;spacingLeft=0;spacingRight=0;" vertex="1" parent="1">
          <mxGeometry x="140" y="510" width="30" height="40" as="geometry" />
        </mxCell>
        <mxCell id="w_5sMjm8i_uiX6zotBji-17" value="&lt;font color=&quot;#000000&quot;&gt;Reguladores&lt;/font&gt;" style="shape=actor;whiteSpace=wrap;html=1;fillStyle=auto;verticalAlign=middle;spacing=0;spacingBottom=0;spacingTop=60;align=center;spacingLeft=0;spacingRight=0;" vertex="1" parent="1">
          <mxGeometry x="700" y="370" width="30" height="40" as="geometry" />
        </mxCell>
        <mxCell id="w_5sMjm8i_uiX6zotBji-19" value="&lt;font color=&quot;#000000&quot;&gt;CEO&lt;/font&gt;" style="shape=actor;whiteSpace=wrap;html=1;fillStyle=auto;verticalAlign=middle;spacing=0;spacingBottom=0;spacingTop=60;align=center;spacingLeft=0;spacingRight=0;fillColor=#0050ef;fontColor=#ffffff;strokeColor=#001DBC;" vertex="1" parent="1">
          <mxGeometry x="230" y="470" width="30" height="40" as="geometry" />
        </mxCell>
        <mxCell id="w_5sMjm8i_uiX6zotBji-20" value="&lt;font color=&quot;#000000&quot;&gt;Product Owner&lt;/font&gt;" style="shape=actor;whiteSpace=wrap;html=1;fillColor=#0050ef;strokeColor=#001DBC;fillStyle=auto;verticalAlign=middle;spacing=0;spacingBottom=0;fontColor=#ffffff;spacingTop=70;spacingLeft=-15;spacingRight=-15;" vertex="1" parent="1">
          <mxGeometry x="260" y="220" width="30" height="40" as="geometry" />
        </mxCell>
        <mxCell id="w_5sMjm8i_uiX6zotBji-21" value="&lt;font color=&quot;#000000&quot;&gt;Program Manager&lt;/font&gt;" style="shape=actor;whiteSpace=wrap;html=1;fillColor=#0050ef;strokeColor=#001DBC;fillStyle=auto;verticalAlign=middle;spacing=0;spacingBottom=0;fontColor=#ffffff;spacingTop=70;spacingLeft=-15;spacingRight=-15;" vertex="1" parent="1">
          <mxGeometry x="570" y="450" width="30" height="40" as="geometry" />
        </mxCell>
      </root>
    </mxGraphModel>
  </diagram>
</mxfile>
